#N canvas 309 140 529 586 12;
#X obj 36 21 adc~ 1 2 3 4;
#X obj 95 249 hv.envfollow~;
#X obj 76 435 *~ 0.5;
#X obj 37 518 *~;
#X obj 64 518 *~;
#X obj 37 560 dac~;
#X obj 98 481 delread~ buf 250;
#X obj 96 382 delwrite~ buf 4000;
#X obj 211 413 r _3_fdback_f @hv_param 0 1 0.5;
#X obj 192 447 r _4_delay @hv_param 100 2100 250 ms;
#X obj 139 179 r _1_attack @hv_param 0 300 150 ms;
#X obj 183 208 r _2_release @hv_param 0 300 150 ms;
#X obj 95 110 clip~ 0 1;
#X obj 148 77 f 0;
#X obj 133 138 expr 1/(1-$f1);
#X obj 148 49 min 0.95;
#X obj 148 21 r _6_thresh_f @hv_param 0 0.95 0;
#X obj 95 138 -~ 0;
#X obj 95 166 *~ 1;
#X obj 243 300 expr 1/(tanh($f1));
#X obj 243 325 sig~;
#X obj 96 294 *~ 1;
#X obj 243 268 expr pow(2 \, $f1 + 1);
#X obj 96 321 expr~ tanh($v1);
#X obj 96 354 *~;
#X obj 243 240 r _5_gain_f @hv_param 0 4 2;
#X connect 0 0 3 0;
#X connect 0 1 4 0;
#X connect 0 2 12 0;
#X connect 0 3 12 0;
#X connect 1 0 21 0;
#X connect 2 0 7 0;
#X connect 3 0 5 0;
#X connect 4 0 5 1;
#X connect 6 0 2 0;
#X connect 6 0 4 1;
#X connect 6 0 3 1;
#X connect 8 0 2 1;
#X connect 9 0 6 0;
#X connect 10 0 1 1;
#X connect 11 0 1 2;
#X connect 12 0 17 0;
#X connect 13 0 12 1;
#X connect 13 0 14 0;
#X connect 13 0 17 1;
#X connect 14 0 18 1;
#X connect 15 0 13 0;
#X connect 16 0 15 0;
#X connect 17 0 18 0;
#X connect 18 0 1 0;
#X connect 19 0 20 0;
#X connect 20 0 24 1;
#X connect 21 0 23 0;
#X connect 22 0 19 0;
#X connect 22 0 21 1;
#X connect 23 0 24 0;
#X connect 24 0 7 0;
#X connect 25 0 22 0;
