#N canvas 309 140 529 458 12;
#X obj 36 30 adc~ 1 2 3 4;
#X obj 95 75 hv.envfollow~;
#X obj 76 285 *~ 0.5;
#X obj 37 367 *~;
#X obj 64 367 *~;
#X obj 37 409 dac~;
#X obj 98 330 delread~ buf 250;
#X obj 96 186 *~;
#X obj 96 211 expr~ tanh($v1);
#X obj 96 240 delwrite~ buf 4000;
#X obj 242 244 r _3_fdback_f @hv_param 0 1 0.5;
#X obj 217 133 f 2;
#X obj 217 159 pow;
#X obj 217 107 t b f;
#X obj 217 82 r _5_gain_f @hv_param -1 4 0;
#X obj 242 284 r _4_delay @hv_param 100 2100 250 ms;
#X obj 139 28 r _1_attack @hv_param 0 300 150 ms;
#X obj 183 50 r _2_release @hv_param 0 300 150 ms;
#X connect 0 0 3 0;
#X connect 0 1 4 0;
#X connect 0 2 1 0;
#X connect 0 3 1 0;
#X connect 1 0 7 0;
#X connect 2 0 9 0;
#X connect 3 0 5 0;
#X connect 4 0 5 1;
#X connect 6 0 2 0;
#X connect 6 0 4 1;
#X connect 6 0 3 1;
#X connect 7 0 8 0;
#X connect 8 0 9 0;
#X connect 10 0 2 1;
#X connect 11 0 12 0;
#X connect 12 0 7 1;
#X connect 13 0 11 0;
#X connect 13 1 12 1;
#X connect 14 0 13 0;
#X connect 15 0 6 0;
#X connect 16 0 1 1;
#X connect 17 0 1 2;
