#N canvas 550 141 299 451 12;
#X obj 102 99 lop~;
#X obj 61 285 *~ 0;
#X obj 19 187 hsl 128 16 20 1020 0 0 empty time_f\ @hv_param\ 20\ 1020\ 250 Time -2 -8 0 12 #e4e4e4 #4d4d4d #373737 0 1;
#X obj 100 257 hsl 128 17 0 1 0 0 empty feedback_f\ @hv_param\ 0\ 1\ 0.5 Feedback\ depth -2 -8 0 10 #e4e4e4 #4d4d4d #373737 0 1;
#X obj 130 73 hsl 128 17 200 20200 1 0 empty cutoff_f\ @hv_param\ 200\ 20200\ 1000 Cutoff -2 -8 0 12 #e4e4e4 #4d4d4d #373737 0 1;
#X obj 102 137 delwrite~ buf 1000;
#X obj 16 218 delread~ buf 250;
#X obj 49 25 adc~;
#X obj 49 373 dac~;
#X obj 61 337 clip~ -1 1;
#X connect 0 0 5 0;
#X connect 1 0 0 0;
#X connect 2 0 6 0;
#X connect 3 0 1 1;
#X connect 4 0 0 1;
#X connect 6 0 9 0;
#X connect 6 0 1 0;
#X connect 7 0 0 0;
#X connect 7 1 0 0;
#X connect 9 0 8 1;
#X connect 9 0 8 0;
