#N canvas 353 156 531 596 12;
#X obj 203 21 adc~;
#X obj 127 57 delwrite~ left 4000;
#X obj 297 58 delwrite~ right 4000;
#N canvas 96 96 450 300 NoteValue2msec 0;
#X obj 134 36 inlet notevalue;
#X obj 37 35 r sys_tempo;
#X obj 37 102 f 120;
#X obj 37 133 *;
#X obj 37 160 expr 240000/$f1;
#X obj 134 68 t b f;
#X obj 37 202 outlet msec;
#X text 250 36 1 to 32;
#X text 103 117 ex. quarter note * 120 = 480;
#X text 124 138 240000 / 480 = 500 (msec);
#X connect 0 0 5 0;
#X connect 1 0 2 0;
#X connect 2 0 3 0;
#X connect 3 0 4 0;
#X connect 4 0 6 0;
#X connect 5 0 2 0;
#X connect 5 1 3 1;
#X restore 169 125 pd NoteValue2msec;
#X obj 172 99 hsl 162 19 1 32 0 1 empty _4_delay\ @hv_param\ 1\ 32\ 8 Delay -2 -10 0 12 #feffc6 #000000 #000000 600 1;
#X obj 104 213 hsl 81 19 80 100 0 0 empty _1_gain1\ @hv_param\ 60\ 100\ 95 Gain1 -2 -10 0 12 #ffc7c6 #000000 #000000 0 1;
#X obj 337 482 hsl 81 19 50 10050 0 0 empty _9_BPFreq_f\ @hv_param\ 50\ 10050\ 10050 BPFreq -2 -10 0 12 #9f9f9f #000000 #000000 0 1;
#X obj 101 237 dbtorms;
#X obj 68 174 hsl 81 19 1 16 0 1 empty time1\ @hv_param\ 1\ 16\ 1 Time1 -2 -10 0 12 #fcfcfc #000000 #000000 0 1;
#X obj 243 213 hsl 81 19 80 100 0 0 empty _2_gain2\ @hv_param\ 60\ 100\ 90 Gain2 -2 -10 0 12 #ffc7c6 #000000 #000000 0 1;
#X obj 240 237 dbtorms;
#X obj 207 174 hsl 81 19 1 16 0 1 empty time2\ @hv_param\ 1\ 16\ 2 Time2 -2 -10 0 12 #fcfcfc #000000 #000000 400 1;
#X obj 391 213 hsl 81 19 80 100 0 0 empty _3_gain3\ @hv_param\ 60\ 100\ 90 Gain3 -2 -10 0 12 #ffc7c6 #000000 #000000 0 1;
#X obj 388 237 dbtorms;
#X obj 356 174 hsl 81 19 1 16 0 1 empty time3\ @hv_param\ 1\ 16\ 3 Time3 -2 -10 0 12 #fcfcfc #000000 #000000 700 1;
#N canvas 846 354 396 300 Echo 0;
#X obj 43 211 *~;
#X obj 178 211 *~;
#X obj 43 235 outlet~ L;
#X obj 178 235 outlet~ R;
#X obj 106 122 sig~;
#X obj 43 187 delread4~ left 250;
#X obj 178 187 delread4~ right 250;
#X obj 192 40 f 0.5;
#X obj 106 16 inlet time;
#X obj 19 16 inlet unit;
#X obj 106 66 f;
#X obj 106 93 *;
#X obj 106 40 t b f;
#X obj 192 16 inlet gain;
#X connect 0 0 2 0;
#X connect 1 0 3 0;
#X connect 4 0 5 0;
#X connect 4 0 6 0;
#X connect 5 0 0 0;
#X connect 6 0 1 0;
#X connect 7 0 0 1;
#X connect 7 0 1 1;
#X connect 8 0 12 0;
#X connect 9 0 10 0;
#X connect 10 0 11 0;
#X connect 11 0 4 0;
#X connect 12 0 10 0;
#X connect 12 1 11 1;
#X connect 13 0 7 0;
#X restore 50 264 pd Echo;
#N canvas 846 354 396 300 Echo 0;
#X obj 43 211 *~;
#X obj 178 211 *~;
#X obj 43 235 outlet~ L;
#X obj 178 235 outlet~ R;
#X obj 106 122 sig~;
#X obj 43 187 delread4~ left 250;
#X obj 178 187 delread4~ right 250;
#X obj 192 40 f 0.5;
#X obj 106 16 inlet time;
#X obj 19 16 inlet unit;
#X obj 106 66 f;
#X obj 106 93 *;
#X obj 106 40 t b f;
#X obj 192 16 inlet gain;
#X connect 0 0 2 0;
#X connect 1 0 3 0;
#X connect 4 0 5 0;
#X connect 4 0 6 0;
#X connect 5 0 0 0;
#X connect 6 0 1 0;
#X connect 7 0 0 1;
#X connect 7 0 1 1;
#X connect 8 0 12 0;
#X connect 9 0 10 0;
#X connect 10 0 11 0;
#X connect 11 0 4 0;
#X connect 12 0 10 0;
#X connect 12 1 11 1;
#X connect 13 0 7 0;
#X restore 189 264 pd Echo;
#N canvas 846 354 396 300 Echo 0;
#X obj 43 211 *~;
#X obj 178 211 *~;
#X obj 43 235 outlet~ L;
#X obj 178 235 outlet~ R;
#X obj 106 122 sig~;
#X obj 43 187 delread4~ left 250;
#X obj 178 187 delread4~ right 250;
#X obj 192 40 f 0.5;
#X obj 106 16 inlet time;
#X obj 19 16 inlet unit;
#X obj 106 66 f;
#X obj 106 93 *;
#X obj 106 40 t b f;
#X obj 192 16 inlet gain;
#X connect 0 0 2 0;
#X connect 1 0 3 0;
#X connect 4 0 5 0;
#X connect 4 0 6 0;
#X connect 5 0 0 0;
#X connect 6 0 1 0;
#X connect 7 0 0 1;
#X connect 7 0 1 1;
#X connect 8 0 12 0;
#X connect 9 0 10 0;
#X connect 10 0 11 0;
#X connect 11 0 4 0;
#X connect 12 0 10 0;
#X connect 12 1 11 1;
#X connect 13 0 7 0;
#X restore 337 264 pd Echo;
#X obj 268 299 noise~;
#X obj 410 294 hsl 81 19 0 0.5 0 1 empty _8_noise_f\ @hv_param\ 0\ 0.5\ 0 Noise -2 -10 0 12 #e3c6ff #000000 #000000 0 1;
#X obj 268 324 *~;
#X obj 50 422 *~;
#X obj 96 422 *~;
#X obj 188 422 *~;
#X obj 234 422 *~;
#X obj 337 422 *~;
#X obj 383 422 *~;
#X obj 114 392 *~;
#X obj 251 392 *~;
#X obj 400 392 *~;
#X obj 268 347 +~;
#X obj 407 318 expr 1-$f1;
#X obj 195 569 dac~;
#X obj 189 527 bp~;
#X obj 226 527 bp~;
#X obj 338 535 hsl 81 19 50 10050 0 0 empty _10_BPFQ_f\ @hv_param\ 0.2\ 2.7\ 0.7 BPFQ -2 -10 0 12 #9f9f9f #000000 #000000 0 1;
#X connect 0 0 1 0;
#X connect 0 1 2 0;
#X connect 3 0 15 0;
#X connect 3 0 16 0;
#X connect 3 0 17 0;
#X connect 4 0 3 0;
#X connect 5 0 7 0;
#X connect 6 0 33 1;
#X connect 6 0 34 1;
#X connect 7 0 27 1;
#X connect 7 0 15 2;
#X connect 8 0 15 1;
#X connect 9 0 10 0;
#X connect 10 0 28 1;
#X connect 10 0 16 2;
#X connect 11 0 16 1;
#X connect 12 0 13 0;
#X connect 13 0 29 1;
#X connect 13 0 17 2;
#X connect 14 0 17 1;
#X connect 15 0 21 0;
#X connect 15 1 22 0;
#X connect 16 0 23 0;
#X connect 16 1 24 0;
#X connect 17 0 25 0;
#X connect 17 1 26 0;
#X connect 18 0 20 0;
#X connect 19 0 20 1;
#X connect 19 0 31 0;
#X connect 20 0 30 0;
#X connect 21 0 33 0;
#X connect 22 0 34 0;
#X connect 23 0 33 0;
#X connect 24 0 33 0;
#X connect 25 0 34 0;
#X connect 26 0 34 0;
#X connect 27 0 21 1;
#X connect 27 0 22 1;
#X connect 28 0 24 1;
#X connect 28 0 23 1;
#X connect 29 0 26 1;
#X connect 29 0 25 1;
#X connect 30 0 29 0;
#X connect 30 0 28 0;
#X connect 30 0 27 0;
#X connect 31 0 30 1;
#X connect 33 0 32 0;
#X connect 34 0 32 1;
#X connect 35 0 34 2;
#X connect 35 0 33 2;
