#N canvas 151 149 640 469 12;
#X obj 331 180 r _4_A_f @hv_param 0 1 0;
#X obj 357 202 r _5_D_f @hv_param 0 1 0;
#X obj 412 246 r _7_R_f @hv_param 0 1 0;
#X obj 136 39 r _2_PWM_f @hv_param 0 1 0;
#X obj 109 10 r _1_wvform_f @hv_param 0 1 0;
#X obj 386 224 r _6_S_f @hv_param 0 1 1;
#X obj 156 135 f 2;
#X obj 188 135 * 3;
#X obj 156 160 pow;
#X obj 156 109 t b f;
#X obj 156 81 r _3_cutoff_f @hv_param -1 1 0;
#X obj 237 110 r FltQ_f @hv_param -1 1 -0.25;
#X obj 246 137 r FltEG_f @hv_param -1 1 0;
#X obj 20 126 notein;
#X obj 20 161 mtof;
#X obj 20 185 sig~;
#N canvas 594 146 419 318 Oscillator 0;
#X obj 29 70 phasor~;
#X obj 29 111 *~ 2;
#X obj 29 135 -~ 1;
#X obj 90 135 clip~ -0.0001 0.0001;
#X obj 90 159 *~ 10000;
#X obj 29 217 *~;
#X obj 89 215 *~;
#X obj 254 122 * -1;
#X obj 254 146 + 1;
#X obj 29 252 +~;
#X obj 30 286 outlet~;
#X obj 29 16 inlet~ frequency;
#X obj 254 16 inlet saw-square-mix;
#X obj 166 16 inlet PWM;
#X obj 166 66 + 0.5;
#X obj 90 111 -~;
#X obj 166 42 * 0.5;
#X connect 0 0 1 0;
#X connect 0 0 15 0;
#X connect 1 0 2 0;
#X connect 2 0 5 0;
#X connect 3 0 4 0;
#X connect 4 0 6 0;
#X connect 5 0 9 0;
#X connect 6 0 9 1;
#X connect 7 0 8 0;
#X connect 8 0 5 1;
#X connect 9 0 10 0;
#X connect 11 0 0 0;
#X connect 12 0 7 0;
#X connect 12 0 6 1;
#X connect 13 0 16 0;
#X connect 14 0 15 1;
#X connect 15 0 3 0;
#X connect 16 0 14 0;
#X restore 21 231 pd Oscillator;
#N canvas 260 367 410 317 LowPassFilter 0;
#X obj 22 195 vcf~;
#X obj 21 279 outlet~;
#X obj 125 18 inlet~ cutoff;
#X obj 21 18 inlet~ signal;
#X obj 230 18 inlet Q;
#X obj 230 153 pow;
#X obj 230 105 t b f;
#X obj 303 18 inlet~ mod;
#X obj 303 44 *~ 3;
#X obj 279 69 pow~;
#X obj 230 129 f 4;
#X obj 251 44 sig~ 2;
#X obj 126 108 *~;
#X obj 22 241 vcf~;
#X connect 0 0 13 0;
#X connect 2 0 12 0;
#X connect 3 0 0 0;
#X connect 4 0 6 0;
#X connect 5 0 0 2;
#X connect 5 0 13 2;
#X connect 6 0 10 0;
#X connect 6 1 5 1;
#X connect 7 0 8 0;
#X connect 8 0 9 1;
#X connect 9 0 12 1;
#X connect 10 0 5 0;
#X connect 11 0 9 0;
#X connect 12 0 0 1;
#X connect 12 0 13 1;
#X connect 13 0 1 0;
#X restore 21 317 pd LowPassFilter;
#X obj 21 425 dac~;
#X obj 21 388 *~;
#N canvas 688 312 399 365 EnvelopeGenerator 0;
#X obj 169 266 pack f f;
#X obj 169 307 line~;
#X obj 12 126 bang;
#X obj 22 79 sel 0;
#X obj 151 209 delay;
#X obj 111 240 f;
#X obj 285 240 f;
#X msg 285 266 0 \$1;
#X obj 22 7 inlet notein;
#X obj 129 7 inlet A;
#X obj 187 7 inlet D;
#X obj 245 7 inlet S;
#X obj 303 7 inlet R;
#X obj 129 79 f 10;
#X obj 129 103 pow;
#X obj 129 55 t b f;
#X obj 187 79 f 10;
#X obj 187 103 pow;
#X obj 187 55 t b f;
#X obj 129 31 * 4;
#X obj 187 31 * 4;
#X obj 303 79 f 10;
#X obj 303 103 pow;
#X obj 303 55 t b f;
#X obj 303 31 * 4.5;
#X obj 169 240 f;
#X msg 111 266 1 \$1;
#X obj 30 265 0;
#X obj 30 239 loadbang;
#X obj 169 331 outlet~;
#X msg 151 184 stop;
#X obj 129 127 + 2;
#X obj 67 164 t b b;
#X connect 0 0 1 0;
#X connect 1 0 29 0;
#X connect 2 0 5 0;
#X connect 2 0 32 0;
#X connect 3 0 30 0;
#X connect 3 0 6 0;
#X connect 3 1 2 0;
#X connect 4 0 25 0;
#X connect 5 0 26 0;
#X connect 6 0 7 0;
#X connect 7 0 1 0;
#X connect 8 0 3 0;
#X connect 9 0 19 0;
#X connect 10 0 20 0;
#X connect 11 0 25 1;
#X connect 12 0 24 0;
#X connect 13 0 14 0;
#X connect 14 0 31 0;
#X connect 15 0 13 0;
#X connect 15 1 14 1;
#X connect 16 0 17 0;
#X connect 17 0 0 1;
#X connect 18 0 16 0;
#X connect 18 1 17 1;
#X connect 19 0 15 0;
#X connect 20 0 18 0;
#X connect 21 0 22 0;
#X connect 22 0 6 1;
#X connect 23 0 21 0;
#X connect 23 1 22 1;
#X connect 24 0 23 0;
#X connect 25 0 0 0;
#X connect 26 0 1 0;
#X connect 27 0 1 0;
#X connect 28 0 27 0;
#X connect 30 0 4 0;
#X connect 31 0 4 1;
#X connect 31 0 5 1;
#X connect 32 0 4 0;
#X connect 32 1 30 0;
#X restore 275 278 pd EnvelopeGenerator;
#X obj 56 290 *~;
#X obj 167 244 *~;
#X obj 122 248 sig~;
#X obj 266 162 touchin;
#X obj 266 187 / 128;
#X obj 266 212 sig~;
#X connect 0 0 20 1;
#X connect 1 0 20 2;
#X connect 2 0 20 4;
#X connect 3 0 16 1;
#X connect 4 0 16 2;
#X connect 5 0 20 3;
#X connect 6 0 8 0;
#X connect 7 0 8 1;
#X connect 8 0 23 0;
#X connect 9 0 6 0;
#X connect 9 1 7 0;
#X connect 10 0 9 0;
#X connect 11 0 17 2;
#X connect 12 0 22 1;
#X connect 13 0 14 0;
#X connect 13 1 20 0;
#X connect 14 0 15 0;
#X connect 15 0 16 0;
#X connect 15 0 21 0;
#X connect 16 0 17 0;
#X connect 17 0 19 0;
#X connect 19 0 18 0;
#X connect 19 0 18 1;
#X connect 20 0 19 1;
#X connect 20 0 22 0;
#X connect 21 0 17 1;
#X connect 22 0 17 3;
#X connect 23 0 21 1;
#X connect 24 0 25 0;
#X connect 25 0 26 0;
#X connect 26 0 22 0;
