#N canvas 177 143 453 439 12;
#X obj 20 21 notein;
#X obj 20 56 mtof;
#X obj 20 80 sig~;
#N canvas 594 146 416 332 Oscillator 0;
#X obj 29 70 phasor~;
#X obj 230 141 clip~ -0.0001 0.0001;
#X obj 230 165 *~ 10000;
#X obj 29 252 +~;
#X obj 30 286 outlet~;
#X obj 29 16 inlet~ frequency;
#X obj 154 16 inlet saw-square-mix;
#X obj 306 16 inlet PWM;
#X obj 185 204 *~ 0;
#X obj 29 199 *~ 1;
#X obj 121 168 expr 1-$f1;
#X obj 269 87 expr $f1*0.5+0.5;
#X obj 230 117 -~ 0.5;
#X obj 29 111 *~ 2;
#X obj 29 135 -~ 1;
#X connect 0 0 12 0;
#X connect 0 0 13 0;
#X connect 1 0 2 0;
#X connect 2 0 8 0;
#X connect 3 0 4 0;
#X connect 5 0 0 0;
#X connect 6 0 8 1;
#X connect 6 0 10 0;
#X connect 7 0 11 0;
#X connect 8 0 3 1;
#X connect 9 0 3 0;
#X connect 10 0 9 1;
#X connect 11 0 12 1;
#X connect 12 0 1 0;
#X connect 13 0 14 0;
#X connect 14 0 9 0;
#X restore 20 151 pd Oscillator;
#X obj 109 41 vsl 19 81 0 1 0 0 empty _2_PWM_f\ @hv_param\ 0\ 1\ 0 PWM 0 -9 0 12 #fcfcfc #000000 #000000 0 1;
#N canvas 574 321 444 317 LowPassFilter 0;
#X obj 22 195 vcf~;
#X obj 73 279 outlet~;
#X obj 125 18 inlet~ cutoff;
#X obj 21 18 inlet~ signal;
#X obj 230 18 inlet Q;
#X obj 303 18 inlet~ mod;
#X obj 126 102 *~;
#X obj 48 241 vcf~;
#X obj 230 127 f 0.707;
#X obj 303 44 *~ 3;
#X obj 279 69 pow~;
#X obj 251 44 sig~ 2;
#X obj 230 102 expr pow(8 \, $f1);
#X obj 126 127 clip~ 20 12000;
#X connect 0 1 7 0;
#X connect 2 0 6 0;
#X connect 3 0 0 0;
#X connect 4 0 12 0;
#X connect 5 0 9 0;
#X connect 6 0 13 0;
#X connect 7 1 1 0;
#X connect 8 0 0 2;
#X connect 8 0 7 2;
#X connect 9 0 10 1;
#X connect 10 0 6 1;
#X connect 11 0 10 0;
#X connect 12 0 8 0;
#X connect 13 0 0 1;
#X connect 13 0 7 1;
#X restore 20 321 pd LowPassFilter;
#X obj 197 83 vsl 19 81 -1 1 0 0 empty fltrrez_f\ \ @hv_param\ -1\ 1\ 0 FltrRez 0 -9 0 12 #fcfcfc #000000 #000000 0 1;
#X obj 262 197 vsl 19 81 -1 1 0 0 empty fltrenv_f\ @hv_param\ -1\ 1\ 0 FltrEnv 0 -9 0 12 #fcfcfc #000000 #000000 0 1;
#X obj 20 380 dac~;
#X obj 313 22 vsl 19 81 0 1 0 0 empty _5_Decay_f\ @hv_param\ 0\ 1\ 0 Decay 0 -9 0 12 #fcfcfc #000000 #000000 0 1;
#X obj 347 44 vsl 19 81 0 1 0 1 empty _6_Sustain_f\ @hv_param\ 0\ 1\ 1 Sustain 0 -9 0 12 #fcfcfc #000000 #000000 8000 1;
#X obj 382 63 vsl 19 81 0 1 0 0 empty _7_Release_f\ @hv_param\ 0\ 1\ 0 Release 0 -9 0 12 #fcfcfc #000000 #000000 0 1;
#X obj 20 352 *~;
#N canvas 688 312 506 364 EnvelopeGenerator 0;
#X obj 203 266 pack f f;
#X obj 169 307 line~;
#X obj 23 112 bang;
#X obj 22 57 sel 0;
#X obj 178 212 delay;
#X obj 111 240 f;
#X obj 315 240 f;
#X msg 315 266 0 \$1;
#X obj 22 7 inlet notein;
#X obj 129 7 inlet A;
#X obj 196 7 inlet D;
#X obj 264 7 inlet S;
#X obj 333 7 inlet R;
#X obj 203 240 f;
#X msg 111 266 1 \$1;
#X obj 30 265 0;
#X obj 30 239 loadbang;
#X obj 169 331 outlet~;
#X msg 150 172 stop;
#X obj 67 142 t b b;
#X obj 333 103 expr pow(10 \, 4.5*$f1);
#X obj 196 74 expr pow(10 \, 4*$f1);
#X obj 129 44 expr 2+pow(10 \, 4*$f1);
#X connect 0 0 1 0;
#X connect 1 0 17 0;
#X connect 2 0 5 0;
#X connect 2 0 19 0;
#X connect 3 0 18 0;
#X connect 3 0 6 0;
#X connect 3 1 2 0;
#X connect 4 0 13 0;
#X connect 5 0 14 0;
#X connect 6 0 7 0;
#X connect 7 0 1 0;
#X connect 8 0 3 0;
#X connect 9 0 22 0;
#X connect 10 0 21 0;
#X connect 11 0 13 1;
#X connect 12 0 20 0;
#X connect 13 0 0 0;
#X connect 14 0 1 0;
#X connect 15 0 1 0;
#X connect 16 0 15 0;
#X connect 18 0 4 0;
#X connect 19 0 4 0;
#X connect 19 1 18 0;
#X connect 20 0 6 1;
#X connect 21 0 0 1;
#X connect 22 0 5 1;
#X connect 22 0 4 1;
#X restore 245 157 pd EnvelopeGenerator;
#X obj 166 70 vsl 19 81 -1 1 0 0 empty _3_cutoff_f\ @hv_param\ -1\ 1\ 0.5 Cutoff 0 -9 0 12 #fcfcfc #000000 #000000 0 1;
#X obj 56 271 *~;
#X obj 173 286 *~;
#X obj 74 221 sig~;
#X obj 80 23 vsl 19 81 0 1 0 0 empty _1_wvform_f\ @hv_param\ 0\ 1\ 0 SAW/SQR 0 -9 0 12 #fcfcfc #000000 #000000 0 1;
#X obj 279 63 vsl 19 81 0 1 0 0 empty _4_A_f\ @hv_param\ 0\ 1\ 0 Attack 0 -9 0 12 #fcfcfc #000000 #000000 0 1;
#X obj 74 196 expr pow(2 \, 5*$f1);
#X connect 0 0 1 0;
#X connect 0 1 13 0;
#X connect 1 0 2 0;
#X connect 2 0 3 0;
#X connect 2 0 15 0;
#X connect 3 0 5 0;
#X connect 4 0 3 2;
#X connect 5 0 12 0;
#X connect 6 0 5 2;
#X connect 7 0 16 1;
#X connect 9 0 13 2;
#X connect 10 0 13 3;
#X connect 11 0 13 4;
#X connect 12 0 8 0;
#X connect 12 0 8 1;
#X connect 13 0 12 1;
#X connect 13 0 16 0;
#X connect 14 0 20 0;
#X connect 15 0 5 1;
#X connect 16 0 5 3;
#X connect 17 0 15 1;
#X connect 18 0 3 1;
#X connect 19 0 13 1;
#X connect 20 0 17 0;
