#N canvas 160 138 558 335 12;
#X obj 72 17 r myTable_size;
#X obj 73 250 tabread~ myTable_s;
#X obj 73 283 dac~ 1;
#X obj 73 193 *~;
#X obj 31 157 phasor~;
#X obj 31 132 /;
#X obj 72 68 t b f;
#X obj 31 107 f 48000;
#X msg 245 241 index \$1;
#X obj 245 216 r myTable_indexMenu @hv_param 0 63 0;
#X msg 229 185 bank \$1;
#X obj 229 160 r myTable_bankMenu @hv_param 0 6 4;
#X obj 241 272 s myTable_set @hv_param;
#X msg 158 127 set myTable_s;
#X text 169 51 table size will be resized;
#X obj 158 71 table myTable_s 100 @hv_table;
#X text 169 107 but resizing must be notified;
#X connect 0 0 6 0;
#X connect 1 0 2 0;
#X connect 3 0 1 0;
#X connect 4 0 3 0;
#X connect 5 0 4 0;
#X connect 6 0 7 0;
#X connect 6 0 13 0;
#X connect 6 1 5 1;
#X connect 6 1 3 1;
#X connect 7 0 5 0;
#X connect 8 0 12 0;
#X connect 9 0 8 0;
#X connect 10 0 12 0;
#X connect 11 0 10 0;
#X connect 13 0 1 0;
