#N canvas 218 126 746 674 12;
#X obj 283 24 hsl 162 19 0 1 0 0 empty _1_start_f\ @hv_param\ 0\ 1\ 0 start -2 -10 0 12 #c6feff #000000 #000000 0 1;
#X obj 283 67 hsl 162 19 0 1 0 1 empty _2_end_f\ @hv_param\ 0\ 1\ 1 end -2 -10 0 12 #c6feff #000000 #000000 16100 1;
#X obj 21 175 bng 19 250 50 0 empty empty empty 0 -10 0 12 #faff00 #000000 #000000;
#X obj 90 319 *~;
#X obj 90 378 +~;
#X msg 90 235 0 \, 1 \$1;
#X obj 90 260 line~;
#X obj 89 287 pow~;
#X obj 281 201 hsl 162 19 -2 2 0 1 empty _3_pitchenv_f\ @hv_param\ -2\ 2\ 0 PitchMod -2 -10 0 12 #feffc6 #000000 #000000 7675 1;
#X obj 281 371 hsl 169 18 100 8100 0 1 empty _4_hicut_f\ @hv_param\ 100\ 8100\ 8100 HiCut -2 -10 0 12 #dfdfdf #000000 #000000 16653 1;
#X obj 281 416 hsl 169 18 20 4020 0 1 empty _5_locut_f\ @hv_param\ 20\ 4020\ 20 LoCut -2 -10 0 12 #dfdfdf #000000 #000000 0 1;
#X obj 90 639 dac~;
#X obj 289 482 hsl 162 19 1 100 0 1 empty _6_decay\ @hv_param\ 1\ 100\ 100 Decay -2 -10 0 12 #ffe3c6 #000000 #000000 15937 1;
#X obj 289 551 hsl 162 19 -1 1 0 1 empty _7_curve_f\ @hv_param\ -1\ 1\ 0 Curve -2 -10 0 12 #ffe3c6 #000000 #000000 7950 1;
#X msg 479 99 index \$1;
#X obj 479 179 send pcm_set @hv_param;
#X obj 489 125 r pcm_bankMenu @hv_param 0 6 4;
#X obj 141 21 r pcm_size;
#X msg 15 359 set pcm_s;
#X msg 489 149 bank \$1;
#X obj 478 23 table pcm_s 48000 @hv_table;
#X obj 90 211 f 1000;
#X obj 141 45 t b f;
#X obj 139 128 abs;
#X obj 139 184 / 48;
#X obj 173 293 sig~;
#X obj 233 307 sig~;
#X obj 278 251 sig~;
#X obj 90 607 *~;
#X obj 479 75 r pcm_indexMenu @hv_param 0 63 10;
#X obj 278 100 r note @hv_param 0 127 48;
#X obj 21 21 notein;
#X obj 90 414 tabread4~ pcm_s;
#X obj 233 332 +~ 1;
#X obj 544 206 loadbang;
#X msg 544 231 guard 1;
#N canvas 399 348 450 300 Envelope 0;
#X obj 126 24 inlet duration;
#X obj 232 24 inlet curve;
#X obj 94 108 line~;
#X obj 95 140 expr~ $v1-$v1*$v1;
#X obj 95 192 *~;
#X obj 112 167 sig~;
#X obj 28 223 +~;
#X msg 94 84 1 \, 0 \$1;
#X obj 16 24 inlet trigger;
#X obj 94 58 f 250;
#X obj 232 48 f 0;
#X obj 28 247 outlet~;
#X text 156 240 curve <0: y=similar to exp(x);
#X text 156 219 curve >0: y=similar to ln(x);
#X text 156 199 curve =0: y=x;
#X text 156 175 y = x+(x-x^2)*curve;
#X connect 0 0 9 1;
#X connect 1 0 10 0;
#X connect 2 0 3 0;
#X connect 2 0 6 0;
#X connect 3 0 4 0;
#X connect 4 0 6 1;
#X connect 5 0 4 1;
#X connect 6 0 11 0;
#X connect 7 0 2 0;
#X connect 8 0 9 0;
#X connect 9 0 7 0;
#X connect 10 0 5 0;
#X restore 180 579 pd Envelope;
#N canvas 761 259 450 300 LenOfs 0;
#X obj 122 15 inlet start;
#X obj 213 15 inlet end;
#X obj 35 84 f 0;
#X obj 53 128 *;
#X obj 22 127 *;
#X obj 35 192 -;
#X obj 53 159 t b f;
#X obj 35 219 outlet length;
#X obj 144 219 outlet offset;
#X obj 22 43 t b f;
#X obj 22 15 inlet size;
#X text 34 247 offset = start * size \, length = (end-start) * size;
#X text 152 39 start \, end: 0..1;
#X obj 105 84 f 1;
#X connect 0 0 2 0;
#X connect 1 0 13 0;
#X connect 2 0 3 0;
#X connect 3 0 6 0;
#X connect 4 0 5 0;
#X connect 5 0 7 0;
#X connect 6 0 5 0;
#X connect 6 0 13 0;
#X connect 6 1 5 1;
#X connect 6 1 8 0;
#X connect 9 0 2 0;
#X connect 9 0 13 0;
#X connect 9 1 3 1;
#X connect 9 1 4 1;
#X connect 10 0 9 0;
#X connect 13 0 4 0;
#X restore 173 98 pd LenOfs;
#X obj 345 457 t b f;
#X obj 183 132 t b f;
#X obj 139 158 f;
#X obj 183 158 expr 48*pow(2 \, ($f1-48)/12);
#X obj 21 46 t b f;
#X obj 21 75 f;
#X obj 21 100 sel 0;
#X obj 90 488 lop~;
#X obj 90 536 hip~;
#X obj 278 225 expr pow(1.414 \, -$f1);
#X obj 286 508 expr pow($f1*0.01 \, 2)*$f2;
#X connect 0 0 37 1;
#X connect 1 0 37 2;
#X connect 2 0 21 0;
#X connect 2 0 36 0;
#X connect 3 0 4 0;
#X connect 4 0 32 0;
#X connect 5 0 6 0;
#X connect 6 0 7 0;
#X connect 7 0 3 0;
#X connect 8 0 47 0;
#X connect 9 0 45 1;
#X connect 10 0 46 1;
#X connect 12 0 48 0;
#X connect 13 0 36 2;
#X connect 14 0 15 0;
#X connect 16 0 19 0;
#X connect 17 0 22 0;
#X connect 18 0 32 0;
#X connect 19 0 15 0;
#X connect 21 0 5 0;
#X connect 22 0 18 0;
#X connect 22 1 37 0;
#X connect 23 0 40 0;
#X connect 24 0 21 1;
#X connect 24 0 38 0;
#X connect 25 0 3 1;
#X connect 26 0 33 0;
#X connect 27 0 7 1;
#X connect 28 0 11 0;
#X connect 28 0 11 1;
#X connect 29 0 14 0;
#X connect 30 0 39 0;
#X connect 31 0 42 0;
#X connect 31 1 43 1;
#X connect 32 0 45 0;
#X connect 33 0 4 1;
#X connect 34 0 35 0;
#X connect 35 0 15 0;
#X connect 36 0 28 1;
#X connect 37 0 23 0;
#X connect 37 0 25 0;
#X connect 37 1 26 0;
#X connect 38 0 48 0;
#X connect 38 1 48 1;
#X connect 39 0 40 0;
#X connect 39 1 41 0;
#X connect 40 0 24 0;
#X connect 41 0 24 1;
#X connect 42 0 43 0;
#X connect 42 1 39 0;
#X connect 43 0 44 0;
#X connect 44 1 2 0;
#X connect 45 0 46 0;
#X connect 46 0 28 0;
#X connect 47 0 27 0;
#X connect 48 0 36 1;
