#N canvas 89 87 758 455 12;
#X obj 6 9 notein;
#X obj 25 39 sel 0;
#X obj 132 9 r sample_size;
#X obj 385 236 cnv 20 360 200 empty empty empty 20 12 0 12 #faff00 #404040 0;
#X msg 480 335 bank \$1;
#X obj 480 410 s sample_set @hv_param;
#X msg 400 307 index \$1;
#X obj 550 342 loadbang;
#X obj 85 420 dac~;
#X obj 86 278 +~ 1;
#X obj 86 71 bng 25 250 50 0 empty empty empty 17 7 0 10 #e4e4e4 #4d4d4d #373737;
#X obj 285 186 pow;
#X obj 285 159 f 2;
#X obj 285 134 t b f;
#X obj 27 374 tabread4~ sample_s;
#X obj 285 9 r speed_f @hv_param -1 1 0;
#X obj 175 374 tabread4~ sample_s;
#X obj 176 347 +~;
#X msg 550 365 guard 1 \, chan 2;
#X obj 400 276 r _1_sample_indexMenu @hv_param 0 127 33;
#X obj 480 306 r _2_sample_bankMenu @hv_param 0 6 4;
#X text 121 280 head guard sample;
#X obj 194 319 + 3;
#X text 220 320 L-ch guard samples;
#X obj 477 9 bendin;
#X obj 285 212 * 48000;
#X obj 86 250 *~;
#X obj 86 202 phasor~;
#X obj 86 164 /;
#X obj 462 243 table sample_s 288000 @hv_table;
#X obj 86 137 f;
#X obj 25 164 f 0;
#X obj 477 34 - 8192;
#X obj 477 59 / 8192;
#X obj 132 123 f 0;
#X obj 285 108 +;
#X obj 285 34 t b f;
#X obj 477 84 f;
#X obj 285 59 f 0;
#X msg 27 332 set sample_s;
#X obj 132 96 bng 20 250 50 0 empty empty empty 0 -10 0 12 #fcfcfc #000000 #000000;
#X obj 176 204 t b f;
#X connect 0 1 1 0;
#X connect 1 0 31 0;
#X connect 1 1 10 0;
#X connect 2 0 40 0;
#X connect 2 0 41 0;
#X connect 4 0 5 0;
#X connect 6 0 5 0;
#X connect 7 0 18 0;
#X connect 9 0 14 0;
#X connect 9 0 17 0;
#X connect 10 0 34 0;
#X connect 10 0 30 0;
#X connect 11 0 25 0;
#X connect 12 0 11 0;
#X connect 13 0 12 0;
#X connect 13 1 11 1;
#X connect 14 0 8 0;
#X connect 15 0 36 0;
#X connect 16 0 8 1;
#X connect 17 0 16 0;
#X connect 18 0 5 0;
#X connect 19 0 6 0;
#X connect 20 0 4 0;
#X connect 22 0 17 1;
#X connect 24 0 32 0;
#X connect 25 0 30 0;
#X connect 26 0 9 0;
#X connect 27 0 26 0;
#X connect 28 0 27 0;
#X connect 30 0 28 0;
#X connect 31 0 27 0;
#X connect 32 0 33 0;
#X connect 33 0 37 0;
#X connect 34 0 27 1;
#X connect 35 0 13 0;
#X connect 36 0 38 0;
#X connect 36 1 35 1;
#X connect 37 0 35 0;
#X connect 38 0 35 0;
#X connect 39 0 14 0;
#X connect 39 0 16 0;
#X connect 40 0 34 0;
#X connect 41 0 39 0;
#X connect 41 0 30 0;
#X connect 41 1 22 0;
#X connect 41 1 26 1;
#X connect 41 1 28 1;
