#N canvas 223 104 722 456 12;
#X obj 30 9 notein;
#X obj 49 39 sel 0;
#X obj 132 9 r sample_size;
#X msg 421 281 bank \$1;
#X msg 338 253 index \$1;
#X obj 491 286 loadbang;
#X obj 85 420 dac~;
#X obj 86 290 +~ 1;
#X obj 86 74 bng 25 250 50 0 empty empty empty 17 7 0 10 #e4e4e4 #4d4d4d #373737;
#X obj 27 374 tabread4~ sample_s;
#X obj 250 9 r speed_f @hv_param -1 1 0;
#X obj 175 374 tabread4~ sample_s;
#X obj 176 347 +~;
#X msg 491 311 guard 1 \, chan 2;
#X obj 338 222 r _1_sample_indexMenu @hv_param 0 127 33;
#X obj 421 252 r _2_sample_bankMenu @hv_param 0 6 4;
#X text 121 292 head guard sample;
#X obj 194 319 + 3;
#X text 220 320 L-ch guard samples;
#X obj 442 9 bendin;
#X obj 86 262 *~;
#X obj 86 231 phasor~;
#X obj 86 201 /;
#X obj 86 176 f;
#X obj 49 191 f 0;
#X obj 442 34 - 8192;
#X obj 442 59 / 8192;
#X obj 215 176 f 0;
#X obj 250 108 +;
#X obj 250 34 t b f;
#X obj 442 84 f;
#X obj 250 59 f 0;
#X msg 206 228 set sample_s;
#X obj 132 59 t b b f;
#X obj 421 356 s sample_set @hv_param;
#X obj 393 179 table sample_s 192000 @hv_table;
#X text 214 193 reset phase;
#X text 207 245 reset tabread4~;
#X text 37 214 stop;
#X obj 250 135 expr pow(2 \, $f1) * 48000;
#X connect 0 1 1 0;
#X connect 1 0 24 0;
#X connect 1 1 8 0;
#X connect 2 0 33 0;
#X connect 3 0 34 0;
#X connect 4 0 34 0;
#X connect 5 0 13 0;
#X connect 7 0 9 0;
#X connect 7 0 12 0;
#X connect 8 0 27 0;
#X connect 8 0 23 0;
#X connect 9 0 6 0;
#X connect 10 0 29 0;
#X connect 11 0 6 1;
#X connect 12 0 11 0;
#X connect 13 0 34 0;
#X connect 14 0 4 0;
#X connect 15 0 3 0;
#X connect 17 0 12 1;
#X connect 19 0 25 0;
#X connect 20 0 7 0;
#X connect 21 0 20 0;
#X connect 22 0 21 0;
#X connect 23 0 22 0;
#X connect 24 0 21 0;
#X connect 25 0 26 0;
#X connect 26 0 30 0;
#X connect 27 0 21 1;
#X connect 28 0 39 0;
#X connect 29 0 31 0;
#X connect 29 1 28 1;
#X connect 30 0 28 0;
#X connect 31 0 28 0;
#X connect 32 0 9 0;
#X connect 32 0 11 0;
#X connect 33 0 24 0;
#X connect 33 1 32 0;
#X connect 33 1 23 0;
#X connect 33 1 27 0;
#X connect 33 2 17 0;
#X connect 33 2 20 1;
#X connect 33 2 22 1;
#X connect 39 0 23 0;
