#N canvas 263 79 746 674 12;
#X obj 252 24 hsl 162 19 0 1 0 0 empty _1_start_f\ @hv_param\ 0\ 1\ 0 start -2 -10 0 12 #c6feff #000000 #000000 0 1;
#X obj 252 67 hsl 162 19 0 1 0 1 empty _2_end_f\ @hv_param\ 0\ 1\ 1 end -2 -10 0 12 #c6feff #000000 #000000 1400 1;
#X obj 42 83 bng 19 250 50 0 empty empty empty 0 -10 0 12 #faff00 #000000 #000000;
#X obj 54 392 *~;
#X obj 115 431 +~;
#X msg 22 302 0 \, 1 \$1;
#X obj 22 327 line~;
#X obj 21 364 pow~;
#X obj 250 178 hsl 162 19 -5 5 0 0 empty _3_pitchenv_f\ @hv_param\ -5\ 5\ 0 PitchMod -2 -10 0 12 #feffc6 #000000 #000000 0 1;
#X obj 115 520 vcf~;
#X obj 115 544 vcf~;
#X obj 266 291 hsl 169 18 30 3030 0 0 empty _4_cutoff_f\ @hv_param\ 30\ 3030\ 1000 Cutoff -2 -10 0 12 #dfdfdf #000000 #000000 0 1;
#X obj 266 357 hsl 169 18 0.2 2.7 0 0 empty _5_filterq_f\ @hv_param\ 0.2\ 2.7\ 0.7 FilterQ -2 -10 0 12 #dfdfdf #000000 #000000 0 1;
#X obj 115 631 dac~;
#X obj 262 487 line~;
#X obj 265 413 hsl 162 19 0 99 0 0 empty _6_decay\ @hv_param\ 0\ 99\ 99 Decay -2 -10 0 12 #ffe3c6 #000000 #000000 0 1;
#X obj 263 513 expr~ $v1-$v1*$v1;
#X obj 283 551 hsl 162 19 -2 2 0 0 empty _7_curve_f\ @hv_param\ -2\ 2\ 0 Curve -2 -10 0 12 #ffe3c6 #000000 #000000 0 1;
#X msg 479 99 index \$1;
#X obj 479 179 send pcm_set @hv_param;
#X obj 489 125 r pcm_bankMenu @hv_param 0 6 4;
#X obj 116 21 r pcm_size;
#X obj 37 51 sel 0;
#X msg 10 143 set pcm_s;
#X msg 489 149 bank \$1;
#X obj 478 23 table pcm_s 48000 @hv_table;
#X obj 226 314 sig~;
#X obj 22 278 f 1000;
#X obj 101 109 * 48000;
#X obj 116 45 t b f;
#X obj 146 193 -;
#X obj 101 133 t b f;
#X obj 61 223 abs;
#X obj 61 251 / 48;
#X obj 146 342 sig~;
#X obj 133 375 sig~;
#X obj 101 85 f 0;
#X obj 166 104 f 1;
#X obj 166 131 * 48000;
#X obj 166 162 f;
#X obj 247 228 sig~;
#X obj 247 202 expr pow(1.5 \, $f1);
#X obj 262 439 expr ($f1+1)*0.01*$f2;
#X obj 263 600 *~;
#X obj 280 575 sig~;
#X obj 115 607 *~;
#X obj 230 561 +~;
#X msg 262 463 1 \, 0 \$1;
#X obj 479 75 r pcm_indexMenu @hv_param 0 63 10;
#X obj 247 118 r note @hv_param 0 127 48;
#X obj 47 172 t b b;
#X obj 38 21 notein;
#X obj 115 467 tabread4~ pcm_s;
#X obj 133 400 +~ 1;
#X obj 544 206 loadbang;
#X msg 544 231 guard 1;
#X connect 0 0 36 0;
#X connect 1 0 37 0;
#X connect 2 0 50 0;
#X connect 3 0 4 0;
#X connect 4 0 52 0;
#X connect 5 0 6 0;
#X connect 6 0 7 0;
#X connect 7 0 3 0;
#X connect 8 0 41 0;
#X connect 9 0 10 0;
#X connect 10 0 45 0;
#X connect 11 0 26 0;
#X connect 12 0 9 2;
#X connect 12 0 10 2;
#X connect 14 0 16 0;
#X connect 14 0 46 0;
#X connect 15 0 42 0;
#X connect 16 0 43 0;
#X connect 17 0 44 0;
#X connect 18 0 19 0;
#X connect 20 0 24 0;
#X connect 21 0 29 0;
#X connect 22 1 2 0;
#X connect 23 0 52 0;
#X connect 24 0 19 0;
#X connect 26 0 9 1;
#X connect 26 0 10 1;
#X connect 27 0 5 0;
#X connect 28 0 31 0;
#X connect 29 0 36 0;
#X connect 29 0 37 0;
#X connect 29 0 23 0;
#X connect 29 1 28 1;
#X connect 29 1 38 1;
#X connect 30 0 34 0;
#X connect 30 0 32 0;
#X connect 31 0 39 0;
#X connect 31 1 30 1;
#X connect 31 1 35 0;
#X connect 32 0 33 0;
#X connect 33 0 27 1;
#X connect 33 0 42 1;
#X connect 34 0 3 1;
#X connect 35 0 53 0;
#X connect 36 0 28 0;
#X connect 37 0 38 0;
#X connect 38 0 39 0;
#X connect 39 0 30 0;
#X connect 40 0 7 1;
#X connect 41 0 40 0;
#X connect 42 0 47 0;
#X connect 43 0 46 1;
#X connect 44 0 43 1;
#X connect 45 0 13 0;
#X connect 45 0 13 1;
#X connect 46 0 45 1;
#X connect 47 0 14 0;
#X connect 48 0 18 0;
#X connect 49 0 33 1;
#X connect 50 0 27 0;
#X connect 50 0 42 0;
#X connect 50 1 36 0;
#X connect 50 1 37 0;
#X connect 51 0 33 1;
#X connect 51 1 22 0;
#X connect 52 0 9 0;
#X connect 53 0 4 1;
#X connect 54 0 55 0;
#X connect 55 0 19 0;
