#N canvas 54 63 929 412 10;
#X msg 74 151 feedback \$1;
#X obj 23 338 dac~;
#X msg 161 151 dry-gain \$1;
#X msg 249 151 wet-gain \$1;
#X msg 341 151 lowcut \$1;
#X msg 429 151 highcut \$1;
#X msg 609 151 damp \$1;
#X msg 514 151 crossfreq \$1;
#X msg 679 151 predelay_ms \$1;
#X obj 23 301 hv.reverb~;
#X obj 23 24 adc~;
#X obj 429 54 * 1000;
#X obj 514 81 * 1000;
#X obj 74 30 r _3_feedback @hv_param 0 100 90;
#X obj 249 83 r _2_wet_gain @hv_param 0 100 80 db;
#X obj 609 84 r _6_dump @hv_param 0 100 60 percent;
#X obj 679 114 r _4_predelay_f @hv_param 0 2800 0 ms;
#X obj 341 113 r _7_lowcut @hv_param 5 200 5 hertz;
#X obj 429 31 r _8_highcut_f @hv_param 0.5 24 24 khertz;
#X obj 513 58 r _5_crossfrq_f @hv_param 1 24 3 khertz;
#X obj 161 57 r _1_dry @hv_param 0 100 20 db;
#X connect 0 0 9 1;
#X connect 2 0 9 1;
#X connect 3 0 9 1;
#X connect 4 0 9 1;
#X connect 5 0 9 1;
#X connect 6 0 9 1;
#X connect 7 0 9 1;
#X connect 8 0 9 1;
#X connect 9 0 1 0;
#X connect 9 1 1 1;
#X connect 10 0 9 0;
#X connect 10 1 9 0;
#X connect 11 0 5 0;
#X connect 12 0 7 0;
#X connect 13 0 0 0;
#X connect 14 0 3 0;
#X connect 15 0 6 0;
#X connect 16 0 8 0;
#X connect 17 0 4 0;
#X connect 18 0 11 0;
#X connect 19 0 12 0;
#X connect 20 0 2 0;
