#N canvas 184 107 634 385 10;
#X msg 157 151 feedback \$1;
#X obj 23 338 dac~;
#X msg 80 151 wet-gain \$1;
#X msg 469 151 lowcut \$1;
#X msg 535 151 highcut \$1;
#X msg 330 151 damp \$1;
#X msg 385 151 crossfreq \$1;
#X msg 234 151 predelay_ms \$1;
#X obj 23 301 hv.reverb~;
#X obj 23 24 adc~;
#X obj 535 127 * 1000;
#X obj 385 127 * 1000;
#X msg 179 311 dry-gain 0;
#X obj 179 282 loadbang;
#X obj 80 69 vsl 16 68 0 100 0 0 empty _1_level\ @hv_param\ 0\ 100\ 80\ db Level 0 -9 0 10 #feffc6 #000000 #000000 0 1;
#X obj 157 69 vsl 16 68 0 100 0 1 empty _2_feedback\ @hv_param\ 0\ 100\ 90 Feedback 0 -9 0 10 #ffc7c6 #000000 #000000 5700 1;
#X obj 234 69 vsl 16 68 0 2000 0 0 empty _3_predelay_f\ @hv_param\ 0\ 2000\ 0\ ms Predelay 0 -9 0 10 #e3c6ff #000000 #000000 0 1;
#X obj 385 50 vsl 16 68 1 21 0 0 empty _5_crossfrq_f\ @hv_param\ 1\ 21\ 3\ khertz CrossFrq 0 -9 0 10 #c6feff #000000 #000000 0 1;
#X obj 330 69 vsl 16 68 0 100 0 1 empty _4_damp\ @hv_param\ 0\ 100\ 60\ percent Damp 0 -9 0 10 #c6feff #000000 #000000 3800 1;
#X obj 469 69 vsl 16 68 5 200 0 1 empty _6_lowcut\ @hv_param\ 5\ 200\ 5\ hertz LoCut 0 -9 0 10 #dfdfdf #000000 #000000 0 1;
#X obj 535 50 vsl 16 68 0.5 20.5 0 1 empty _7_highcut_f\ @hv_param\ 0.5\ 20.5\ 20.5\ khertz HiCut 0 -9 0 10 #dfdfdf #000000 #000000 6700 1;
#X connect 0 0 8 1;
#X connect 2 0 8 1;
#X connect 3 0 8 1;
#X connect 4 0 8 1;
#X connect 5 0 8 1;
#X connect 6 0 8 1;
#X connect 7 0 8 1;
#X connect 8 0 1 0;
#X connect 8 1 1 1;
#X connect 9 0 8 0;
#X connect 9 1 8 0;
#X connect 10 0 4 0;
#X connect 11 0 6 0;
#X connect 12 0 8 1;
#X connect 13 0 12 0;
#X connect 14 0 2 0;
#X connect 15 0 0 0;
#X connect 16 0 7 0;
#X connect 17 0 11 0;
#X connect 18 0 5 0;
#X connect 19 0 3 0;
#X connect 20 0 10 0;
