#N canvas 179 169 462 359 12;
#X obj 20 97 adc~;
#X obj 80 316 dac~;
#X obj 128 91 * 1000;
#X obj 31 188 rev2~, f 19;
#X obj 63 144 vsl 16 34 0 120 0 0 empty empty empty 0 -9 0 10 #fcfcfc #000000 #000000 0 1;
#X obj 96 144 vsl 16 34 0 100 0 0 empty empty empty 0 -9 0 10 #fcfcfc #000000 #000000 0 1;
#X obj 128 144 vsl 16 34 1000 10000 0 0 empty empty empty 0 -9 0 10 #fcfcfc #000000 #000000 0 1;
#X obj 161 144 vsl 16 34 0 100 0 0 empty empty empty 0 -9 0 10 #fcfcfc #000000 #000000 0 1;
#X obj 161 117 r _4_damping @hv_param 0 100 0 percent;
#X obj 96 40 r _2_feedback @hv_param 0 100 80 percent;
#X obj 191 182 vsl 16 34 0 100 0 0 empty empty empty 0 -9 0 10 #fcfcfc #000000 #000000 0 1;
#X obj 215 209 vsl 16 34 0 100 0 0 empty empty empty 0 -9 0 10 #fcfcfc #000000 #000000 0 1;
#X obj 31 245 *~ 1;
#X obj 191 155 r _5_earlyref_f @hv_param 0 1 1;
#X obj 215 182 r _6_latervb_f @hv_param 0 1 0;
#X obj 74 245 *~ 1;
#X obj 117 255 *~ 0;
#X obj 161 255 *~ 0;
#X obj 63 14 r _1_level @hv_param 0 120 100 db;
#X obj 128 66 r _3_crossovr_f @hv_param 1 10 5 khertz;
#X connect 0 0 3 0;
#X connect 0 1 3 0;
#X connect 2 0 6 0;
#X connect 3 0 12 0;
#X connect 3 1 15 0;
#X connect 3 2 16 0;
#X connect 3 3 17 0;
#X connect 4 0 3 1;
#X connect 5 0 3 2;
#X connect 6 0 3 3;
#X connect 7 0 3 4;
#X connect 8 0 7 0;
#X connect 9 0 5 0;
#X connect 10 0 12 1;
#X connect 10 0 15 1;
#X connect 11 0 16 1;
#X connect 11 0 17 1;
#X connect 12 0 1 0;
#X connect 13 0 10 0;
#X connect 14 0 11 0;
#X connect 15 0 1 1;
#X connect 16 0 1 0;
#X connect 17 0 1 1;
#X connect 18 0 4 0;
#X connect 19 0 2 0;
