#N canvas 179 169 323 315 12;
#X obj 20 63 adc~;
#X obj 80 282 dac~;
#X obj 31 154 rev2~, f 19;
#X obj 63 19 vsl 16 34 0 120 0 0 empty _1_level\ @hv_param\ 0\ 120\ 100\ db Level 0 -9 0 10 #fcfcfc #000000 #000000 0 1;
#X obj 96 24 vsl 16 34 0 100 0 0 empty _2_feedback\ @hv_param\ 0\ 100\ 80\ percent Feedback 0 -9 0 10 #fcfcfc #000000 #000000 0 1;
#X obj 128 34 vsl 16 34 1 10 0 0 empty _3_crossovr_f\ @hv_param\ 1\ 10\ 5\ khertz CrossOver 0 -9 0 10 #fcfcfc #000000 #000000 0 1;
#X obj 161 110 vsl 16 34 0 100 0 0 empty _4_damping\ @hv_param\ 0\ 100\ 0\ percent Damping 0 -9 0 10 #fcfcfc #000000 #000000 0 1;
#X obj 191 148 vsl 16 34 0 1 0 0 empty _5_earlyref_f\ @hv_param\ 0\ 1\ 1 EarlyRef 0 -9 0 10 #fcfcfc #000000 #000000 0 1;
#X obj 244 147 vsl 16 34 0 100 0 0 empty _6_latervb_f\ @hv_param\ 0\ 1\ 0 LateRvrb 0 -9 0 10 #fcfcfc #000000 #000000 0 1;
#X obj 31 211 *~ 1;
#X obj 74 211 *~ 1;
#X obj 117 221 *~ 0;
#X obj 161 221 *~ 0;
#X obj 128 75 * 1000;
#X connect 0 0 2 0;
#X connect 0 1 2 0;
#X connect 2 0 9 0;
#X connect 2 1 10 0;
#X connect 2 2 11 0;
#X connect 2 3 12 0;
#X connect 3 0 2 1;
#X connect 4 0 2 2;
#X connect 5 0 13 0;
#X connect 6 0 2 4;
#X connect 7 0 9 1;
#X connect 7 0 10 1;
#X connect 8 0 11 1;
#X connect 8 0 12 1;
#X connect 9 0 1 0;
#X connect 10 0 1 1;
#X connect 11 0 1 0;
#X connect 12 0 1 1;
#X connect 13 0 2 3;
